<svg width="24" height="24" viewBox="0 0 24 24" fill="none" xmlns="http://www.w3.org/2000/svg">
  <path d="M12 2.163C15.204 2.163 15.584 2.175 16.85 2.233C18.102 2.286 18.897 2.48 19.598 2.765C20.3 3.06 20.895 3.445 21.489 4.039C22.084 4.632 22.464 5.22 22.764 5.927C23.048 6.628 23.242 7.423 23.295 8.675C23.353 9.941 23.365 10.321 23.365 13.525C23.365 16.729 23.353 17.109 23.295 18.375C23.242 19.627 23.048 20.422 22.764 21.123C22.464 21.83 22.083 22.418 21.489 23.011C20.895 23.605 20.301 23.99 19.598 24.285C18.897 24.569 18.102 24.763 16.85 24.816C15.584 24.874 15.204 24.886 12 24.886C8.796 24.886 8.416 24.874 7.15 24.816C5.898 24.763 5.103 24.569 4.402 24.285C3.699 23.99 3.105 23.605 2.511 23.011C1.917 22.418 1.537 21.83 1.236 21.123C0.952 20.422 0.758 19.627 0.705 18.375C0.647 17.109 0.635 16.729 0.635 13.525C0.635 10.321 0.647 9.941 0.705 8.675C0.758 7.423 0.952 6.628 1.236 5.927C1.537 5.22 1.917 4.632 2.511 4.039C3.105 3.445 3.7 3.06 4.402 2.765C5.103 2.48 5.898 2.286 7.15 2.233C8.416 2.175 8.796 2.163 12 2.163ZM12 0C8.741 0 8.333 0.014 7.053 0.072C5.775 0.13 4.904 0.333 4.14 0.63C3.351 0.936 2.681 1.347 2.014 2.014C1.347 2.681 0.935 3.35 0.63 4.14C0.333 4.904 0.13 5.775 0.072 7.052C0.014 8.333 0 8.741 0 12C0 15.259 0.014 15.667 0.072 16.948C0.13 18.225 0.333 19.096 0.63 19.86C0.936 20.649 1.347 21.319 2.014 21.986C2.681 22.652 3.35 23.065 4.14 23.37C4.904 23.667 5.775 23.87 7.052 23.928C8.333 23.986 8.741 24 12 24C15.259 24 15.667 23.986 16.948 23.928C18.225 23.87 19.096 23.667 19.86 23.37C20.649 23.065 21.319 22.652 21.986 21.986C22.652 21.319 23.065 20.649 23.37 19.86C23.667 19.096 23.87 18.225 23.928 16.948C23.986 15.667 24 15.259 24 12C24 8.741 23.986 8.333 23.928 7.053C23.87 5.775 23.667 4.904 23.37 4.14C23.065 3.351 22.652 2.681 21.986 2.014C21.319 1.347 20.649 0.935 19.86 0.63C19.096 0.333 18.225 0.13 16.948 0.072C15.667 0.014 15.259 0 12 0Z" fill="#FF6500"/>
  <path d="M12 5.838C8.597 5.838 5.838 8.597 5.838 12C5.838 15.403 8.597 18.162 12 18.162C15.403 18.162 18.162 15.403 18.162 12C18.162 8.597 15.403 5.838 12 5.838ZM12 16C9.791 16 8 14.209 8 12C8 9.791 9.791 8 12 8C14.209 8 16 9.791 16 12C16 14.209 14.209 16 12 16Z" fill="#FF6500"/>
  <path d="M18.406 7.034C19.2013 7.034 19.846 6.38931 19.846 5.594C19.846 4.7987 19.2013 4.154 18.406 4.154C17.6107 4.154 16.966 4.7987 16.966 5.594C16.966 6.38931 17.6107 7.034 18.406 7.034Z" fill="#FF6500"/>
</svg> 