<svg xmlns="http://www.w3.org/2000/svg" xmlns:xlink="http://www.w3.org/1999/xlink" width="492" zoomAndPan="magnify" viewBox="0 0 369 74.999997" height="100" preserveAspectRatio="xMidYMid meet" version="1.0"><defs><g/></defs><g fill="#d9d9d9" fill-opacity="1"><g transform="translate(7.640632, 62.003904)"><g><path d="M 38.359375 0 L 32.703125 -20.28125 L 32.4375 -20.28125 L 26.703125 0 L 13.3125 0 L 0 -36.4375 L 14.765625 -36.4375 L 20.28125 -14.90625 L 20.765625 -14.90625 L 26.5 -36.4375 L 40.15625 -36.4375 L 45.671875 -14.90625 L 46.15625 -14.90625 L 51.75 -36.4375 L 65.140625 -36.4375 L 51.75 0 Z M 38.359375 0 "/></g></g></g><g fill="#d9d9d9" fill-opacity="1"><g transform="translate(71.592626, 62.003904)"><g><path d="M 22.984375 -37.265625 C 29.367188 -37.265625 34.390625 -35.640625 38.046875 -32.390625 C 41.703125 -29.148438 43.53125 -24.425781 43.53125 -18.21875 C 43.53125 -12.007812 41.703125 -7.28125 38.046875 -4.03125 C 34.390625 -0.789062 29.367188 0.828125 22.984375 0.828125 C 16.585938 0.828125 11.570312 -0.78125 7.9375 -4 C 4.300781 -7.21875 2.484375 -11.957031 2.484375 -18.21875 C 2.484375 -24.46875 4.300781 -29.203125 7.9375 -32.421875 C 11.570312 -35.648438 16.585938 -37.265625 22.984375 -37.265625 Z M 22.984375 -27.9375 C 18.472656 -27.9375 16.21875 -25.335938 16.21875 -20.140625 L 16.21875 -16.21875 C 16.21875 -11.0625 18.472656 -8.484375 22.984375 -8.484375 C 27.535156 -8.484375 29.8125 -11.0625 29.8125 -16.21875 L 29.8125 -20.140625 C 29.8125 -25.335938 27.535156 -27.9375 22.984375 -27.9375 Z M 22.984375 -27.9375 "/></g></g></g><g fill="#d9d9d9" fill-opacity="1"><g transform="translate(117.607759, 62.003904)"><g><path d="M 26.28125 -37.328125 C 27.34375 -37.328125 28.285156 -37.195312 29.109375 -36.9375 C 29.941406 -36.6875 30.359375 -36.539062 30.359375 -36.5 L 30.359375 -24.984375 L 25.9375 -24.984375 C 23.09375 -24.984375 21.035156 -24.242188 19.765625 -22.765625 C 18.503906 -21.296875 17.875 -19.113281 17.875 -16.21875 L 17.875 0 L 4.140625 0 L 4.140625 -36.4375 L 15.390625 -36.4375 L 16.28125 -30.90625 C 17.113281 -33.03125 18.425781 -34.628906 20.21875 -35.703125 C 22.007812 -36.785156 24.03125 -37.328125 26.28125 -37.328125 Z M 26.28125 -37.328125 "/></g></g></g><g fill="#d9d9d9" fill-opacity="1"><g transform="translate(150.515277, 62.003904)"><g><path d="M 29.53125 -36.4375 L 45.546875 -36.4375 L 32.078125 -21.734375 L 45.890625 0 L 30.296875 0 L 22.625 -12.484375 L 17.875 -7.859375 L 17.875 0 L 4.140625 0 L 4.140625 -50.09375 L 17.875 -50.09375 L 17.875 -22.5 Z M 29.53125 -36.4375 "/></g></g></g><g fill="#ff6500" fill-opacity="1"><g transform="translate(196.535147, 62.003904)"><g><path d="M 25.109375 -11.390625 L 47.671875 -11.390625 L 47.671875 0 L 1.65625 0 L 1.65625 -4.90625 L 23.671875 -36.09375 L 3.3125 -36.09375 L 3.3125 -47.46875 L 47.125 -47.46875 L 47.125 -42.578125 Z M 25.109375 -11.390625 "/></g></g></g><g fill="#ff6500" fill-opacity="1"><g transform="translate(246.344626, 62.003904)"><g><path d="M 22.984375 -37.265625 C 29.648438 -37.265625 34.738281 -35.695312 38.25 -32.5625 C 41.769531 -29.4375 43.53125 -24.65625 43.53125 -18.21875 L 43.53125 -15.875 L 16.21875 -15.875 C 16.21875 -13.25 16.800781 -11.269531 17.96875 -9.9375 C 19.144531 -8.601562 21 -7.9375 23.53125 -7.9375 C 25.832031 -7.9375 27.519531 -8.414062 28.59375 -9.375 C 29.675781 -10.34375 30.21875 -11.632812 30.21875 -13.25 L 43.53125 -13.25 C 43.53125 -8.832031 41.851562 -5.378906 38.5 -2.890625 C 35.144531 -0.410156 30.25 0.828125 23.8125 0.828125 C 17.039062 0.828125 11.789062 -0.742188 8.0625 -3.890625 C 4.34375 -7.046875 2.484375 -11.820312 2.484375 -18.21875 C 2.484375 -24.46875 4.300781 -29.203125 7.9375 -32.421875 C 11.570312 -35.648438 16.585938 -37.265625 22.984375 -37.265625 Z M 23.53125 -28.5 C 19.207031 -28.5 16.789062 -26.453125 16.28125 -22.359375 L 29.671875 -22.359375 C 29.671875 -24.242188 29.128906 -25.738281 28.046875 -26.84375 C 26.960938 -27.945312 25.457031 -28.5 23.53125 -28.5 Z M 23.53125 -28.5 "/></g></g></g><g fill="#ff6500" fill-opacity="1"><g transform="translate(292.359759, 62.003904)"><g><path d="M 29.25 -37.265625 C 33.488281 -37.265625 36.664062 -36.085938 38.78125 -33.734375 C 40.894531 -31.390625 41.953125 -28.007812 41.953125 -23.59375 L 41.953125 0 L 28.21875 0 L 28.21875 -21.9375 C 28.21875 -23.5 27.816406 -24.75 27.015625 -25.6875 C 26.210938 -26.632812 25.070312 -27.109375 23.59375 -27.109375 C 21.894531 -27.109375 20.515625 -26.554688 19.453125 -25.453125 C 18.398438 -24.359375 17.875 -23.003906 17.875 -21.390625 L 17.875 0 L 4.140625 0 L 4.140625 -36.4375 L 15.390625 -36.4375 L 16.28125 -30.90625 C 17.707031 -32.84375 19.582031 -34.382812 21.90625 -35.53125 C 24.226562 -36.6875 26.675781 -37.265625 29.25 -37.265625 Z M 29.25 -37.265625 "/></g></g></g><g fill="#ff6500" fill-opacity="1"><g transform="translate(338.374892, 62.003904)"><g><path d="M 4.203125 0 L 4.203125 -13.734375 L 18.84375 -13.734375 L 18.84375 0 Z M 4.203125 0 "/></g></g></g></svg>