<?xml version="1.0" encoding="UTF-8"?>
<svg xmlns="http://www.w3.org/2000/svg" version="1.1" width="1080" height="303" style="background-color:transparent;">
  <path d="M0 0 C356.4 0 712.8 0 1080 0 C1080 99.99 1080 199.98 1080 303 C723.6 303 367.2 303 0 303 C0 203.01 0 103.02 0 0 Z " fill="#FEFEFE" transform="translate(0,0)"/>
  <path d="M0 0 C10.56 0 21.12 0 32 0 C36.35121291 15.27190412 40.46765695 30.51954729 44 46 C46.02959449 42.95560827 46.69947276 40.84178924 47.5859375 37.328125 C47.8751709 36.19487793 48.1644043 35.06163086 48.46240234 33.89404297 C48.76355957 32.69150879 49.0647168 31.48897461 49.375 30.25 C49.99973608 27.79941187 50.62473449 25.3488906 51.25 22.8984375 C51.55035156 21.7134668 51.85070312 20.52849609 52.16015625 19.30761719 C53.21365593 15.15854344 54.28376937 11.01429607 55.375 6.875 C55.67148438 5.73804687 55.96796875 4.60109375 56.2734375 3.4296875 C57 1 57 1 58 0 C60.21855264 -0.08783542 62.43988496 -0.10694609 64.66015625 -0.09765625 C65.65685585 -0.09553383 65.65685585 -0.09553383 66.6736908 -0.09336853 C68.80333899 -0.08775518 70.93288339 -0.07520054 73.0625 -0.0625 C74.50325369 -0.05748671 75.94400903 -0.05292351 77.38476562 -0.04882812 C80.92321102 -0.03778145 84.46159539 -0.02050792 88 0 C88.15557373 0.60247559 88.31114746 1.20495117 88.47143555 1.82568359 C91.17329047 12.27417797 93.8836858 22.72020262 96.75 33.125 C96.94811279 33.85122559 97.14622559 34.57745117 97.3503418 35.32568359 C98.36678405 38.98418098 99.50542173 42.50812167 101 46 C101.15033691 45.4237085 101.30067383 44.84741699 101.45556641 44.25366211 C105.30371094 29.50244141 109.15185547 14.7512207 113 0 C122.9 0 132.8 0 143 0 C140.3921648 7.82350561 137.69585616 15.60432277 134.9375 23.375 C134.6990033 24.04763885 134.46050659 24.72027771 134.21478271 25.41329956 C130.37897838 36.22342393 126.45167791 46.99641577 122.43725586 57.74169922 C119.55073463 65.47141394 116.77611226 73.22688568 114 81 C104.1 81 94.2 81 84 81 C81.17216979 71.46617243 78.38434496 61.93031181 75.78833008 52.33056641 C74.37336636 47.15532914 72.74052489 42.07467615 71 37 C70.8141333 37.69859131 70.6282666 38.39718262 70.43676758 39.11694336 C64.16303128 62.65940464 64.16303128 62.65940464 61.125 73.0625 C60.92237549 73.7630249 60.71975098 74.4635498 60.51098633 75.18530273 C59.12326003 79.87673997 59.12326003 79.87673997 58 81 C55.85441173 81.08775605 53.70595579 81.10695219 51.55859375 81.09765625 C50.25341797 81.09443359 48.94824219 81.09121094 47.60351562 81.08789062 C46.2148431 81.07953401 44.82617123 81.07106905 43.4375 81.0625 C42.04492344 81.05748666 40.65234519 81.05292347 39.25976562 81.04882812 C35.8398013 81.03699434 32.41992156 81.0205088 29 81 C25.55992556 72.96629322 22.44922805 64.87218257 19.5625 56.625 C16.52055474 48.00178276 13.42406241 39.4031631 10.23828125 30.83203125 C9.91833694 29.97007141 9.59839264 29.10811157 9.26875305 28.22003174 C7.98696677 24.76840206 6.70457528 21.31704324 5.41262817 17.86920166 C4.50793802 15.45468135 3.60900522 13.03808345 2.7109375 10.62109375 C2.29918022 9.53076591 2.29918022 9.53076591 1.87910461 8.41841125 C0.78761053 5.46882137 0 3.17264477 0 0 Z " fill="#D9D9D9" transform="translate(151,119)"/>
  <path d="M0 0 C31.68 0 63.36 0 96 0 C96 13.75367647 96 13.75367647 90.75 20.1875 C89.63987226 21.64916819 88.53051887 23.11142476 87.421875 24.57421875 C86.85146484 25.30688965 86.28105469 26.03956055 85.69335938 26.79443359 C83.01478628 30.28322098 80.51470693 33.89232268 78 37.5 C77.00225597 38.91603718 76.00355538 40.33140083 75.00390625 41.74609375 C74.50906738 42.44718262 74.01422852 43.14827148 73.50439453 43.87060547 C71.99292818 46.01000981 70.47916773 48.14777387 68.96484375 50.28515625 C68.45759766 51.001875 67.95035156 51.71859375 67.42773438 52.45703125 C66.49371146 53.77665995 65.55893385 55.09575515 64.62304688 56.4140625 C59.33519901 63.88919142 54.18893912 71.45245219 49 79 C65.17 79 81.34 79 98 79 C98 87.58 98 96.16 98 105 C64.34 105 30.68 105 -4 105 C-4 91.28793506 -4 91.28793506 0.6875 85.9375 C1.70807233 84.66437191 2.72482969 83.38817873 3.73828125 82.109375 C4.54193115 81.11454102 4.54193115 81.11454102 5.36181641 80.09960938 C8.2258056 76.42892278 10.78207879 72.55193854 13.375 68.6875 C18.1481214 61.64393237 23.03852555 54.70078116 28.07177734 47.84057617 C33.55497575 40.33470708 38.72373454 32.67456795 44 25 C29.48 25 14.96 25 0 25 C0 16.75 0 8.5 0 0 Z " fill="#FB7522" transform="translate(574,95)"/>
  <path d="M0 0 C10.23 0 20.46 0 31 0 C31.33 19.47 31.66 38.94 32 59 C43.4292295 46.24506966 43.4292295 46.24506966 53.62036133 32.37817383 C56 30 56 30 59.66699219 29.43237305 C61.12719246 29.43316036 62.58754992 29.46116419 64.046875 29.51171875 C64.81807678 29.51879349 65.58927856 29.52586823 66.3838501 29.53315735 C68.84023212 29.56108422 71.29431051 29.62381261 73.75 29.6875 C75.41793576 29.71258539 77.08590736 29.73539815 78.75390625 29.75585938 C82.83682127 29.81090438 86.91802049 29.89715943 91 30 C88.75222845 33.42189414 86.6748403 36.56590197 83.6875 39.375 C80.60741765 42.36372397 77.77798821 45.48523285 74.9765625 48.734375 C71.06015934 53.22353277 67.01807583 57.60194516 63 62 C64.29297973 65.46797138 65.80229558 68.48552807 67.80078125 71.59765625 C68.63971924 72.91008301 68.63971924 72.91008301 69.49560547 74.24902344 C70.39496826 75.64169434 70.39496826 75.64169434 71.3125 77.0625 C71.92754395 78.02317383 72.54258789 78.98384766 73.17626953 79.97363281 C76.36276057 84.94159919 79.57763756 89.89018983 82.81640625 94.82421875 C83.41477295 95.73743896 84.01313965 96.65065918 84.62963867 97.59155273 C85.77763692 99.34012636 86.93002743 101.08582557 88.0871582 102.82836914 C88.60238037 103.61203857 89.11760254 104.39570801 89.6484375 105.203125 C90.10395996 105.89051758 90.55948242 106.57791016 91.02880859 107.28613281 C92 109 92 109 92 111 C62.68823168 114.01566427 62.68823168 114.01566427 55.27636719 109.24804688 C51.25872708 104.9055763 48.93528105 99.86933851 46.90722656 94.35888672 C45.61663466 91.00320885 43.85859567 88.07126684 42 85 C37.49623126 86.41547017 34.91740169 88.27647416 32 92 C31.25905252 95.27382658 31.21114998 98.46531529 31.1875 101.8125 C31.0946875 106.3603125 31.0946875 106.3603125 31 111 C20.77 111 10.54 111 0 111 C0 74.37 0 37.74 0 0 Z " fill="#D9D9D9" transform="translate(474,89)"/>
  <path d="M0 0 C1.11375 0.61875 2.2275 1.2375 3.375 1.875 C11.5273432 8.47451593 16.75312877 15.51176552 19 26 C19.21605828 29.08073689 19.18512125 32.16238624 19.1875 35.25 C19.19974609 36.07113281 19.21199219 36.89226562 19.22460938 37.73828125 C19.2510815 48.87422025 16.01102732 59.05407978 8.3125 67.3125 C-1.60733295 76.54241976 -13.30571256 78.35583318 -26.375 78.3125 C-27.33921875 78.32861328 -28.3034375 78.34472656 -29.296875 78.36132812 C-42.36127001 78.37008442 -52.08165265 74.50151045 -61.75 65.8125 C-71.07178639 56.1004993 -71.4530479 43.84212194 -71.27734375 31.23046875 C-71.06271753 25.21132441 -69.91485205 20.2956163 -67 15 C-66.56429688 14.19433594 -66.12859375 13.38867188 -65.6796875 12.55859375 C-60.41257955 3.82325352 -53.11833463 -0.87938155 -43.51171875 -4.078125 C-29.71084518 -7.41481229 -12.48443491 -7.17543933 0 0 Z " fill="#D9D9D9" transform="translate(368,123)"/>
  <path d="M0 0 C0.97195313 -0.00322266 1.94390625 -0.00644531 2.9453125 -0.00976562 C15.26303313 0.08129279 27.12774052 3.01571375 36.375 11.6875 C45.81878895 22.14230285 45.375 33.45568912 45.375 47.3125 C25.575 47.3125 5.775 47.3125 -14.625 47.3125 C-12.74126232 55.84193473 -12.74126232 55.84193473 -7.5625 62.125 C-2.12666957 64.32246337 3.81335113 64.16820818 9.3125 62.125 C13.63016442 59.56964759 14.82703401 56.95639796 16.375 52.3125 C25.945 52.3125 35.515 52.3125 45.375 52.3125 C45.375 61.19163016 44.1820596 65.95086872 38.390625 72.5859375 C26.18811127 84.225924 11.16232459 83.78644718 -4.73828125 83.58984375 C-16.17966333 83.226252 -27.45159607 79.49757388 -35.69140625 71.2421875 C-39.77233039 66.35189427 -42.15893646 61.49252168 -43.625 55.3125 C-43.80675781 54.59835938 -43.98851562 53.88421875 -44.17578125 53.1484375 C-46.33501198 39.51712004 -45.56670747 26.08778912 -37.5625 14.5625 C-27.81722686 2.96791064 -14.55617219 -0.24325154 0 0 Z " fill="#FB7522" transform="translate(726.625,117.6875)"/>
  <path d="M0 0 C1.2384668 -0.04350586 1.2384668 -0.04350586 2.50195312 -0.08789062 C9.5677018 -0.16027418 14.56753214 1.63037612 20.01953125 6.13671875 C20.54933594 6.75160156 21.07914063 7.36648437 21.625 8 C22.16769531 8.60199219 22.71039062 9.20398438 23.26953125 9.82421875 C28.25513224 17.86428921 28.21836252 26.08610153 28.10546875 35.31640625 C28.10122391 36.63543442 28.09697906 37.95446259 28.09260559 39.3134613 C28.08124678 42.79055385 28.05185931 46.26725996 28.01849365 49.74420166 C27.9875972 53.30402305 27.97389344 56.8639098 27.95898438 60.42382812 C27.92857726 67.38705808 27.86983706 74.34923211 27.8125 81.3125 C17.9125 81.3125 8.0125 81.3125 -2.1875 81.3125 C-2.23648438 77.61675781 -2.28546875 73.92101562 -2.3359375 70.11328125 C-2.38995365 66.5322669 -2.44725875 62.95131923 -2.50488281 59.37036133 C-2.54315578 56.88245617 -2.57801157 54.39449599 -2.609375 51.90649414 C-2.65506142 48.32938988 -2.71305108 44.75266383 -2.7734375 41.17578125 C-2.78498871 40.06415115 -2.79653992 38.95252106 -2.80844116 37.8072052 C-2.82831085 36.76650375 -2.84818054 35.72580231 -2.86865234 34.65356445 C-2.88197601 33.7408931 -2.89529968 32.82822174 -2.9090271 31.88789368 C-3.22020589 29.010027 -3.84405253 26.87689784 -5.1875 24.3125 C-9.25622744 22.95625752 -12.93771964 22.64643562 -17.1875 23.3125 C-20.2610547 25.01790923 -22.59329136 27.12408271 -24.1875 30.3125 C-24.30622573 31.94585192 -24.36459092 33.58377354 -24.39282227 35.22119141 C-24.41276749 36.24209869 -24.43271271 37.26300598 -24.45326233 38.31484985 C-24.47833107 39.97271011 -24.47833107 39.97271011 -24.50390625 41.6640625 C-24.52468735 42.7932309 -24.54546844 43.92239929 -24.56687927 45.08578491 C-24.63241335 48.70295972 -24.69127774 52.32020881 -24.75 55.9375 C-24.79318154 58.38542444 -24.83679571 60.83334128 -24.88085938 63.28125 C-24.98891504 69.29159155 -25.08796015 75.30198716 -25.1875 81.3125 C-35.0875 81.3125 -44.9875 81.3125 -55.1875 81.3125 C-55.1875 54.9125 -55.1875 28.5125 -55.1875 1.3125 C-46.9375 1.3125 -38.6875 1.3125 -30.1875 1.3125 C-29.5275 4.9425 -28.8675 8.5725 -28.1875 12.3125 C-27.0325 11.24 -25.8775 10.1675 -24.6875 9.0625 C-17.07372246 2.38184973 -9.96148638 0.11397582 0 0 Z " fill="#FB7320" transform="translate(842.1875,117.6875)"/>
  <path d="M0 0 C0.74121094 -0.01417969 1.48242188 -0.02835937 2.24609375 -0.04296875 C4.5625 0.1875 4.5625 0.1875 9.5625 2.1875 C9.5625 10.7675 9.5625 19.3475 9.5625 28.1875 C0.9375 28.4375 0.9375 28.4375 -1.74462891 28.48535156 C-7.01807555 28.7108647 -10.4090183 29.48565195 -14.4375 33.1875 C-17.53815677 38.92782355 -17.90363252 43.82497062 -17.94921875 50.27734375 C-17.96716995 51.22186905 -17.98512115 52.16639435 -18.00361633 53.13954163 C-18.05748156 56.13465 -18.09153858 59.12960119 -18.125 62.125 C-18.15819407 64.1647353 -18.19268565 66.20444992 -18.22851562 68.24414062 C-18.31561973 73.22528007 -18.37589163 78.20571998 -18.4375 83.1875 C-28.3375 83.1875 -38.2375 83.1875 -48.4375 83.1875 C-48.4375 56.4575 -48.4375 29.7275 -48.4375 2.1875 C-40.1875 2.1875 -31.9375 2.1875 -23.4375 2.1875 C-22.7775 5.8175 -22.1175 9.4475 -21.4375 13.1875 C-20.963125 12.32125 -20.48875 11.455 -20 10.5625 C-16.90179958 5.88743772 -11.75496628 2.2739217 -6.43359375 0.53125 C-4.25983728 0.15690446 -2.20587785 0.01911506 0 0 Z " fill="#D9D9D9" transform="translate(450.4375,116.8125)"/>
  <path d="M0 0 C5.13308791 2.61320839 8.1797908 5.53937241 10 11 C10.25455755 14.43305568 10.23130883 17.87098906 10.25 21.3125 C10.270625 22.25029297 10.29125 23.18808594 10.3125 24.15429688 C10.34282115 29.53251159 10.06991683 33.37689485 7 38 C2.07355168 42.44581921 -0.9513878 43.35086982 -7.45703125 43.28515625 C-12.10221772 42.76426744 -14.82145066 40.34110787 -17.8125 36.9375 C-20.74978666 32.14508493 -20.22050269 27.11869229 -20.25 21.6875 C-20.270625 20.74970703 -20.29125 19.81191406 -20.3125 18.84570312 C-20.34282115 13.46748841 -20.06991683 9.62310515 -17 5 C-11.45491235 -0.00410349 -7.35003296 -0.82419724 0 0 Z " fill="#FEFEFE" transform="translate(347,138)"/>
  <path d="M0 0 C10.89 0 21.78 0 33 0 C33 10.23 33 20.46 33 31 C22.11 31 11.22 31 0 31 C0 20.77 0 10.54 0 0 Z " fill="#FB7929" transform="translate(888,169)"/>
  <path d="M0 0 C4.14546584 1.48052351 6.95561717 3.02481116 9 7 C9 8.98 9 10.96 9 13 C-0.57 13 -10.14 13 -20 13 C-17.58083141 4.53290993 -17.58083141 4.53290993 -13.1953125 1.1015625 C-8.93459861 -1.03637579 -4.61472215 -0.70299689 0 0 Z " fill="#FEFCFB" transform="translate(732,137)"/>
</svg>
