<svg xmlns="http://www.w3.org/2000/svg" width="64" height="64" viewBox="0 0 64 64" fill="none">
  <path d="M32 10C23.164 10 16 17.164 16 26C16 31.4 18.6 36.2 22.8 39C22.8 39 23.6 43.4 24 47.2C24.2 49.2 27.6 50 32 50C36.4 50 39.8 49.2 40 47.2C40.4 43.4 41.2 39 41.2 39C45.4 36.2 48 31.4 48 26C48 17.164 40.836 10 32 10Z" fill="#1D7EC2" fill-opacity="0.2" stroke="#1D7EC2" stroke-width="2"/>
  <path d="M26 44H38V50C38 52.2091 35.3137 54 32 54C28.6863 54 26 52.2091 26 50V44Z" fill="#1D7EC2"/>
  <path d="M32 4V8" stroke="#1D7EC2" stroke-width="2" stroke-linecap="round"/>
  <path d="M46.143 8.93219L43.316 11.7594" stroke="#1D7EC2" stroke-width="2" stroke-linecap="round"/>
  <path d="M52 24H48" stroke="#1D7EC2" stroke-width="2" stroke-linecap="round"/>
  <path d="M17.857 8.93219L20.684 11.7594" stroke="#1D7EC2" stroke-width="2" stroke-linecap="round"/>
  <path d="M12 24H16" stroke="#1D7EC2" stroke-width="2" stroke-linecap="round"/>
  <path d="M26 30L30 34L38 26" stroke="#1D7EC2" stroke-width="2" stroke-linecap="round" stroke-linejoin="round"/>
</svg> 