<svg xmlns="http://www.w3.org/2000/svg" width="300" height="300" viewBox="0 0 300 300" fill="none">
  <circle cx="150" cy="150" r="120" fill="#F5F5F5"/>
  
  <!-- Target Icon -->
  <circle cx="150" cy="150" r="60" fill="#FF6B35" fill-opacity="0.05" stroke="#FF6B35" stroke-width="2"/>
  <circle cx="150" cy="150" r="45" fill="#FF6B35" fill-opacity="0.1" stroke="#FF6B35" stroke-width="2"/>
  <circle cx="150" cy="150" r="30" fill="#FF6B35" fill-opacity="0.15" stroke="#FF6B35" stroke-width="2"/>
  <circle cx="150" cy="150" r="15" fill="#FF6B35" fill-opacity="0.2" stroke="#FF6B35" stroke-width="2"/>
  <circle cx="150" cy="150" r="5" fill="#FF6B35"/>
  
  <!-- Arrow -->
  <path d="M80 220L140 160" stroke="#7A3B69" stroke-width="3" stroke-linecap="round"/>
  <path d="M60 220L80 220L80 200" stroke="#7A3B69" stroke-width="3" stroke-linecap="round" stroke-linejoin="round"/>
  <path d="M140 160L150 150" stroke="#7A3B69" stroke-width="3" stroke-linecap="round"/>
  
  <!-- Growth Chart -->
  <rect x="190" y="120" width="80" height="100" rx="5" fill="white" stroke="#1D7EC2" stroke-width="2"/>
  <line x1="200" y1="180" x2="260" y2="180" stroke="#1D7EC2" stroke-width="1" stroke-dasharray="2 2"/>
  <line x1="200" y1="160" x2="260" y2="160" stroke="#1D7EC2" stroke-width="1" stroke-dasharray="2 2"/>
  <line x1="200" y1="140" x2="260" y2="140" stroke="#1D7EC2" stroke-width="1" stroke-dasharray="2 2"/>
  
  <path d="M200 180L210 175L220 170L230 155L240 145L250 130L260 120" stroke="#1D7EC2" stroke-width="2" stroke-linecap="round" stroke-linejoin="round"/>
  <circle cx="210" cy="175" r="3" fill="#1D7EC2"/>
  <circle cx="220" cy="170" r="3" fill="#1D7EC2"/>
  <circle cx="230" cy="155" r="3" fill="#1D7EC2"/>
  <circle cx="240" cy="145" r="3" fill="#1D7EC2"/>
  <circle cx="250" cy="130" r="3" fill="#1D7EC2"/>
  <circle cx="260" cy="120" r="3" fill="#1D7EC2"/>
  
  <!-- Gauge Elements -->
  <path d="M90 100C90 100 110 80 150 80C190 80 210 100 210 100" stroke="#7A3B69" stroke-width="2" stroke-linecap="round"/>
  <path d="M90 100L100 110" stroke="#7A3B69" stroke-width="2" stroke-linecap="round"/>
  <path d="M210 100L200 110" stroke="#7A3B69" stroke-width="2" stroke-linecap="round"/>
  <path d="M150 80V90" stroke="#7A3B69" stroke-width="2" stroke-linecap="round"/>
  <path d="M120 85L125 95" stroke="#7A3B69" stroke-width="2" stroke-linecap="round"/>
  <path d="M180 85L175 95" stroke="#7A3B69" stroke-width="2" stroke-linecap="round"/>
  
  <!-- Decorative Elements -->
  <rect x="70" y="60" width="15" height="15" rx="3" fill="#FF6B35" fill-opacity="0.2"/>
  <rect x="215" y="60" width="15" height="15" rx="3" fill="#1D7EC2" fill-opacity="0.2"/>
  <circle cx="70" cy="230" r="8" fill="#7A3B69" fill-opacity="0.2"/>
  <circle cx="230" cy="230" r="8" fill="#1D7EC2" fill-opacity="0.2"/>
</svg> 