<svg xmlns="http://www.w3.org/2000/svg" width="64" height="64" viewBox="0 0 64 64" fill="none">
  <!-- Shield Body -->
  <path d="M16 12L32 8L48 12V28C48 40.1503 38.1503 50 26 50L32 56L38 50C25.8497 50 16 40.1503 16 28V12Z" fill="#1D7EC2" fill-opacity="0.1"/>
  <path d="M16 12L32 8L48 12V28C48 40.1503 38.1503 50 32 50C25.8497 50 16 40.1503 16 28V12Z" stroke="#1D7EC2" stroke-width="2"/>
  
  <!-- Checkmark -->
  <path d="M24 32L30 38L40 26" stroke="#1D7EC2" stroke-width="3" stroke-linecap="round" stroke-linejoin="round"/>
  
  <!-- Decorative Elements -->
  <path d="M32 8V16" stroke="#1D7EC2" stroke-width="1" stroke-dasharray="2 2"/>
  <path d="M16 20H48" stroke="#1D7EC2" stroke-width="1" stroke-dasharray="2 2"/>
  <circle cx="32" cy="20" r="2" fill="#1D7EC2"/>
</svg> 