<svg xmlns="http://www.w3.org/2000/svg" width="400" height="400" viewBox="0 0 400 400" fill="none">
  <circle cx="200" cy="200" r="150" fill="#F5F5F5"/>
  
  <!-- Central Hub -->
  <circle cx="200" cy="200" r="50" fill="white" stroke="#7A3B69" stroke-width="3"/>
  <text x="200" y="205" font-family="Arial" font-size="16" font-weight="bold" text-anchor="middle" fill="#7A3B69">WorkZen</text>
  
  <!-- Connection Lines -->
  <line x1="170" y1="170" x2="120" y2="120" stroke="#FF6B35" stroke-width="2" stroke-dasharray="4 2"/>
  <line x1="230" y1="170" x2="280" y2="120" stroke="#1D7EC2" stroke-width="2" stroke-dasharray="4 2"/>
  <line x1="170" y1="230" x2="120" y2="280" stroke="#7A3B69" stroke-width="2" stroke-dasharray="4 2"/>
  <line x1="230" y1="230" x2="280" y2="280" stroke="#FF6B35" stroke-width="2" stroke-dasharray="4 2"/>
  
  <!-- Excellence Value -->
  <circle cx="100" cy="100" r="35" fill="white" stroke="#FF6B35" stroke-width="2"/>
  <text x="100" y="105" font-family="Arial" font-size="12" font-weight="bold" text-anchor="middle" fill="#FF6B35">Excellence</text>
  
  <!-- Integrity Value -->
  <circle cx="300" cy="100" r="35" fill="white" stroke="#1D7EC2" stroke-width="2"/>
  <text x="300" y="105" font-family="Arial" font-size="12" font-weight="bold" text-anchor="middle" fill="#1D7EC2">Integrity</text>
  
  <!-- Innovation Value -->
  <circle cx="100" cy="300" r="35" fill="white" stroke="#7A3B69" stroke-width="2"/>
  <text x="100" y="305" font-family="Arial" font-size="12" font-weight="bold" text-anchor="middle" fill="#7A3B69">Innovation</text>
  
  <!-- Collaboration Value -->
  <circle cx="300" cy="300" r="35" fill="white" stroke="#FF6B35" stroke-width="2"/>
  <text x="300" y="305" font-family="Arial" font-size="12" font-weight="bold" text-anchor="middle" fill="#FF6B35">Collaboration</text>
  
  <!-- Decorative Elements -->
  <rect x="80" y="150" width="20" height="20" rx="4" fill="#FF6B35" fill-opacity="0.2"/>
  <rect x="300" y="150" width="20" height="20" rx="4" fill="#1D7EC2" fill-opacity="0.2"/>
  <rect x="150" y="80" width="20" height="20" rx="4" fill="#7A3B69" fill-opacity="0.2"/>
  <rect x="230" y="80" width="20" height="20" rx="4" fill="#FF6B35" fill-opacity="0.2"/>
  <rect x="150" y="300" width="20" height="20" rx="4" fill="#1D7EC2" fill-opacity="0.2"/>
  <rect x="230" y="300" width="20" height="20" rx="4" fill="#7A3B69" fill-opacity="0.2"/>
  
  <circle cx="50" cy="200" r="10" fill="#FF6B35" fill-opacity="0.2"/>
  <circle cx="350" cy="200" r="10" fill="#7A3B69" fill-opacity="0.2"/>
  <circle cx="200" cy="50" r="10" fill="#1D7EC2" fill-opacity="0.2"/>
  <circle cx="200" cy="350" r="10" fill="#FF6B35" fill-opacity="0.2"/>
</svg> 