<svg xmlns="http://www.w3.org/2000/svg" width="64" height="64" viewBox="0 0 64 64" fill="none">
  <!-- Lightbulb -->
  <path d="M32 8C23.164 8 16 15.164 16 24C16 29.4 18.6 34.2 22.8 37C22.8 37 23.6 41.4 24 45.2C24.2 47.2 27.6 48 32 48C36.4 48 39.8 47.2 40 45.2C40.4 41.4 41.2 37 41.2 37C45.4 34.2 48 29.4 48 24C48 15.164 40.836 8 32 8Z" fill="#7A3B69" fill-opacity="0.1" stroke="#7A3B69" stroke-width="2"/>
  
  <!-- Lightbulb Base -->
  <path d="M26 42H38V48C38 52 35.3137 56 32 56C28.6863 56 26 52 26 48V42Z" fill="#7A3B69" fill-opacity="0.2" stroke="#7A3B69" stroke-width="1"/>
  
  <!-- Light Rays -->
  <path d="M32 4V8" stroke="#7A3B69" stroke-width="2" stroke-linecap="round"/>
  <path d="M46.143 9.85719L43.316 12.6844" stroke="#7A3B69" stroke-width="2" stroke-linecap="round"/>
  <path d="M52 24H48" stroke="#7A3B69" stroke-width="2" stroke-linecap="round"/>
  <path d="M17.857 9.85719L20.684 12.6844" stroke="#7A3B69" stroke-width="2" stroke-linecap="round"/>
  <path d="M12 24H16" stroke="#7A3B69" stroke-width="2" stroke-linecap="round"/>
  
  <!-- Lightning Bolt Inside -->
  <path d="M32 20L28 28H34L30 36" stroke="#7A3B69" stroke-width="2" stroke-linecap="round" stroke-linejoin="round"/>
</svg> 